<?xml version="1.0" encoding="UTF-8"?>
<svg xmlns="http://www.w3.org/2000/svg" viewBox="0 0 80 80">
<g id="surface14928911">
<path style=" stroke:none;fill-rule:nonzero;fill:rgb(20.784314%,33.333334%,80.784315%);fill-opacity:1;" d="M 39.886719 3.203125 C 39.710938 3.203125 39.535156 3.234375 39.367188 3.289062 L 5.875 14.945312 C 5.164062 15.191406 4.71875 15.902344 4.8125 16.648438 L 10.105469 60.046875 C 10.167969 60.558594 10.472656 61.011719 10.929688 61.257812 L 39.164062 76.605469 C 39.402344 76.734375 39.664062 76.800781 39.929688 76.800781 C 40.191406 76.800781 40.457031 76.734375 40.695312 76.601562 L 69.078125 61.046875 C 69.53125 60.800781 69.835938 60.347656 69.898438 59.835938 L 75.1875 16.445312 C 75.28125 15.691406 74.832031 14.976562 74.113281 14.734375 L 40.40625 3.285156 C 40.238281 3.226562 40.0625 3.203125 39.886719 3.203125 Z M 40 11.199219 L 60.800781 56 L 53.699219 56 L 49.25 46.414062 L 30.75 46.414062 L 26.300781 56 L 19.199219 56 Z M 40 26.398438 L 33.726562 40 L 46.273438 40 Z M 40 26.398438 "/>
</g>
</svg>
